<svg xmlns="http://www.w3.org/2000/svg" viewBox="0 0 500 700" width="500" height="700">
  <defs>
    <linearGradient id="bg" x1="0" y1="0" x2="0" y2="1">
      <stop offset="0" stop-color="#a9d8ff"/>
      <stop offset="1" stop-color="#2f7ae0"/>
    </linearGradient>
    <radialGradient id="shine" cx="0.3" cy="0.15" r="0.9">
      <stop offset="0" stop-color="#ffffff" stop-opacity="0.35"/>
      <stop offset="0.5" stop-color="#ffffff" stop-opacity="0"/>
    </radialGradient>
    <pattern id="grid" width="42" height="42" patternUnits="userSpaceOnUse">
      <path d="M42 0 L0 0 0 42" fill="none" stroke="#ffffff" stroke-width="1" opacity="0.12"/>
    </pattern>
  </defs>
  <rect width="500" height="700" rx="28" fill="url(#bg)"/>
  <rect width="500" height="700" rx="28" fill="url(#grid)"/>
  <rect width="500" height="700" rx="28" fill="url(#shine)"/>
  <rect x="6" y="6" width="488" height="688" rx="24" fill="none" stroke="#ffffff" stroke-width="3" opacity="0.5"/>
  <text x="250" y="70" text-anchor="middle" font-family="'Chakra Petch', Arial, sans-serif" font-size="26" font-weight="700" letter-spacing="4" fill="#ffffff" opacity="0.85">BLUE SMP</text>
  <path d="M160 430 L150 220 L215 300 L250 200 L285 300 L350 220 L340 430 Z" fill="none" stroke="#eaf6ff" stroke-width="14" stroke-linejoin="round"/><circle cx="150" cy="205" r="12" fill="#eaf6ff"/><circle cx="250" cy="185" r="12" fill="#eaf6ff"/><circle cx="350" cy="205" r="12" fill="#eaf6ff"/>
  <text x="250" y="560" text-anchor="middle" font-family="'Chakra Petch', Arial, sans-serif" font-size="34" font-weight="700" letter-spacing="2" fill="#ffffff">GRADE VIP</text>
  <rect x="185" y="600" width="130" height="46" rx="23" fill="#ffffff" opacity="0.92"/>
  <text x="250" y="630" text-anchor="middle" font-family="'Chakra Petch', Arial, sans-serif" font-size="20" font-weight="700" letter-spacing="3" fill="#2f7ae0">BIENTÔT</text>
</svg>